# xmcd
#
# Track frame offsets: 
#        182
#        10915
#        22565
#        34442
#        45155
#        58380
#        69345
#        83955
#        94452
#        105782
#
# Disc length: 1609 seconds
#
# Revision: 7
# Processed by: cddbd v1.5.2PL0 Copyright (c) Steve Scherf et al.
# Submitted via: ExactAudioCopy v0.99pb4
#
DISCID=7106470a
DTITLE=Various Artist - Soul Hits Vol. 1
DYEAR=1993
DGENRE=Soul
TTITLE0=Arthur Conley - Sweet Soul Music
TTITLE1=Wilson Pickett - In The Midnight Hour
TTITLE2=Sam And Dave - Hold On I'm Comin'
TTITLE3=Etta James - Tell Mama
TTITLE4=Booker T. And The MG's - Green Onions
TTITLE5=Aretha Franklin - Respect
TTITLE6=Archie Bell And The Drells - Tighten Up
TTITLE7=Brenton Wood - Gimme Little Sign
TTITLE8=Clarence Carter - Slip Away
TTITLE9=Otis Redding - Try A Little Tenderness
EXTD=YEAR: 1993
EXTT0=
EXTT1=
EXTT2=
EXTT3=
EXTT4=
EXTT5=
EXTT6=
EXTT7=
EXTT8=
EXTT9=
PLAYORDER=
